<svg width="20" height="20" viewBox="0 0 20 20" fill="none" xmlns="http://www.w3.org/2000/svg">
<mask id="mask0_2838_40" style="mask-type:luminance" maskUnits="userSpaceOnUse" x="0" y="0" width="20" height="20">
<path d="M20 0H0V20H20V0Z" fill="white"/>
</mask>
<g mask="url(#mask0_2838_40)">
<path fill-rule="evenodd" clip-rule="evenodd" d="M10.5182 12.4552C10.6188 11.9705 10.868 11.525 11.2344 11.175C11.4784 10.9419 11.7683 10.757 12.0875 10.6308C12.4067 10.5046 12.749 10.4397 13.0946 10.4397C13.4403 10.4397 13.7825 10.5046 14.1017 10.6308C14.421 10.757 14.711 10.9419 14.9549 11.175C15.3212 11.525 15.5705 11.9705 15.6711 12.4552C15.7717 12.9399 15.7192 13.4421 15.5201 13.8984C15.3211 14.3547 14.9845 14.7446 14.5528 15.019C14.1211 15.2932 13.6136 15.4397 13.0946 15.4397C12.5756 15.4397 12.0682 15.2932 11.6365 15.019C11.2048 14.7446 10.8682 14.3547 10.6691 13.8984C10.4701 13.4421 10.4176 12.9399 10.5182 12.4552ZM13.1086 13.7331C13.3289 13.7413 13.5444 13.6699 13.7119 13.5334C13.8749 13.3773 13.9664 13.166 13.9664 12.9459C13.9664 12.7256 13.8749 12.5145 13.7119 12.3583C13.5477 12.2031 13.3259 12.116 13.0946 12.116C12.8634 12.116 12.6415 12.2031 12.4775 12.3583C12.3341 12.5177 12.2591 12.7229 12.2676 12.9325C12.2761 13.1423 12.3675 13.3413 12.5234 13.4896C12.6792 13.638 12.8883 13.725 13.1086 13.7331ZM6.3899 9.50676C5.8807 9.411 5.41272 9.17376 5.04506 8.825C4.80022 8.59274 4.60596 8.31676 4.47341 8.01287C4.34085 7.709 4.27262 7.3832 4.27262 7.05416C4.27262 6.72514 4.34085 6.39934 4.47341 6.09545C4.60596 5.79157 4.80022 5.51559 5.04506 5.28334C5.41272 4.93457 5.8807 4.69733 6.3899 4.60157C6.8991 4.50581 7.42669 4.55583 7.90605 4.7453C8.38541 4.93478 8.79504 5.25521 9.08323 5.66614C9.3714 6.07708 9.5252 6.56009 9.5252 7.05416C9.5252 7.54825 9.3714 8.03125 9.08323 8.44219C8.79504 8.85312 8.38541 9.17356 7.90605 9.36304C7.42669 9.55251 6.8991 9.60252 6.3899 9.50676ZM6.73634 6.23721C6.56638 6.26976 6.4104 6.34962 6.28818 6.46666C6.12512 6.6228 6.03361 6.83401 6.03361 7.05416C6.03361 7.27432 6.12512 7.48552 6.28818 7.64166C6.4104 7.7587 6.56638 7.83856 6.73634 7.87112C6.90629 7.90367 7.08257 7.88746 7.24285 7.82454C7.40311 7.76161 7.54015 7.6548 7.63658 7.51766C7.733 7.38051 7.78446 7.2192 7.78446 7.05416C7.78446 6.88914 7.733 6.72783 7.63658 6.59068C7.54015 6.45353 7.40311 6.34672 7.24285 6.28379C7.08257 6.22086 6.90629 6.20465 6.73634 6.23721ZM6.28818 14.7166L14.9549 6.46666C15.1197 6.30975 15.2124 6.09691 15.2124 5.875C15.2124 5.65309 15.1197 5.44025 14.9549 5.28334C14.7901 5.12641 14.5665 5.03826 14.3334 5.03826C14.1002 5.03826 13.8766 5.12641 13.7119 5.28334L5.04506 13.5334C4.96301 13.6108 4.89789 13.703 4.85345 13.8045C4.809 13.9061 4.78611 14.015 4.78611 14.125C4.78611 14.235 4.809 14.3439 4.85345 14.4455C4.89789 14.547 4.96301 14.6392 5.04506 14.7166C5.12645 14.7948 5.22327 14.8568 5.32995 14.8991C5.43664 14.9414 5.55105 14.9631 5.66663 14.9631C5.78219 14.9631 5.89661 14.9414 6.00329 14.8991C6.10997 14.8568 6.2068 14.7948 6.28818 14.7166ZM19.4554 11.9429L19.4546 11.9417H19.4896C19.0835 11.3604 18.8312 10.6942 18.7542 10C18.8459 9.31805 19.107 8.66671 19.5159 8.1C19.5391 8.05876 19.5643 8.01478 19.5905 7.96887C19.7921 7.6159 20.0584 7.15007 19.9886 6.95834C19.9099 6.74166 19.2795 6.45 18.8594 6.26666C18.1861 6.02859 17.5849 5.63651 17.1085 5.125C16.7421 4.5406 16.5317 3.87967 16.4956 3.2C16.4344 2.76666 16.3381 2.1 16.1542 1.975C15.9742 1.85261 15.3243 1.9619 14.8781 2.03691L14.8499 2.04166C14.1488 2.20959 13.4149 2.20959 12.7139 2.04166C12.0698 1.77283 11.5048 1.35796 11.068 0.833334C10.7266 0.466666 10.2539 0 10 0C9.74613 0 9.27339 0.483334 8.93197 0.833334C8.50746 1.33536 7.96461 1.73506 7.34745 2C6.64636 2.16791 5.91249 2.16791 5.2114 2C5.16009 1.99203 5.10514 1.9831 5.04782 1.97379C4.62607 1.90525 4.07656 1.81595 3.90701 1.93334C3.72013 2.06271 3.63215 2.68642 3.57111 3.11923C3.56925 3.13245 3.56741 3.14549 3.56559 3.15834C3.52954 3.83801 3.31914 4.49894 2.95279 5.08334C2.47382 5.59206 1.8733 5.98364 1.20193 6.225C0.781726 6.40834 0.133909 6.725 0.0726284 6.91666C0.011422 7.1081 0.343213 7.69858 0.544634 8.05704L0.54536 8.05834C0.93913 8.64268 1.17935 9.30865 1.2457 10C1.16368 10.7022 0.90218 11.3746 0.48408 11.9583C0.460913 11.9996 0.435774 12.0436 0.409545 12.0895C0.207826 12.4424 -0.0583743 12.9082 0.0113486 13.1C0.0901373 13.3166 0.720446 13.6084 1.14065 13.7916C1.81383 14.0298 2.41511 14.4219 2.89151 14.9334C3.25786 15.5177 3.46826 16.1786 3.50431 16.8584C3.56559 17.2916 3.66189 17.9584 3.84573 18.0834C4.02574 18.2057 4.67572 18.0964 5.12187 18.0214L5.15013 18.0166C5.58206 17.9271 6.0215 17.8741 6.46326 17.8584C6.74234 17.8554 7.02012 17.8948 7.28616 17.975C7.92829 18.2391 8.49316 18.6481 8.93197 19.1666C9.27339 19.5334 9.74613 20 10 20C10.2539 20 10.7266 19.5166 11.068 19.1666C11.4875 18.6495 12.0308 18.2351 12.6525 17.9584C13.3572 17.804 14.0911 17.8184 14.7886 18C14.8399 18.008 14.8949 18.0169 14.9521 18.0262C15.3739 18.0947 15.9234 18.184 16.093 18.0666C16.2799 17.9373 16.3679 17.3136 16.4289 16.8807C16.4307 16.8675 16.4326 16.8545 16.4344 16.8416C16.4705 16.162 16.6809 15.5011 17.0473 14.9166C17.5261 14.4079 18.1267 14.0164 18.7981 13.775C19.2183 13.5916 19.8661 13.275 19.9274 13.0834C19.9886 12.8919 19.6567 12.3014 19.4554 11.9429Z" fill="#18BB54"/>
</g>
</svg>
