<svg width="25" height="24" viewBox="0 0 25 24" fill="none" xmlns="http://www.w3.org/2000/svg">
<circle cx="12.6665" cy="12" r="10" stroke="url(#paint0_linear_2838_28)" stroke-width="1.5"/>
<path d="M13.4165 7C13.4165 6.58579 13.0807 6.25 12.6665 6.25C12.2523 6.25 11.9165 6.58579 11.9165 7H13.4165ZM14.6968 12.9697C14.4039 12.6768 13.9291 12.6768 13.6362 12.9697C13.3433 13.2626 13.3433 13.7374 13.6362 14.0303L14.6968 12.9697ZM15.1362 15.5303C15.4291 15.8232 15.9039 15.8232 16.1968 15.5303C16.4897 15.2374 16.4897 14.7626 16.1968 14.4697L15.1362 15.5303ZM11.9165 7V10.5H13.4165V7H11.9165ZM13.6362 14.0303L15.1362 15.5303L16.1968 14.4697L14.6968 12.9697L13.6362 14.0303ZM13.4165 12C13.4165 12.4142 13.0807 12.75 12.6665 12.75V14.25C13.9091 14.25 14.9165 13.2426 14.9165 12H13.4165ZM12.6665 12.75C12.2523 12.75 11.9165 12.4142 11.9165 12H10.4165C10.4165 13.2426 11.4239 14.25 12.6665 14.25V12.75ZM11.9165 12C11.9165 11.5858 12.2523 11.25 12.6665 11.25V9.75C11.4239 9.75 10.4165 10.7574 10.4165 12H11.9165ZM12.6665 11.25C13.0807 11.25 13.4165 11.5858 13.4165 12H14.9165C14.9165 10.7574 13.9091 9.75 12.6665 9.75V11.25Z" fill="url(#paint1_linear_2838_28)"/>
<defs>
<linearGradient id="paint0_linear_2838_28" x1="32.844" y1="28.4062" x2="1.44592" y2="26.865" gradientUnits="userSpaceOnUse">
<stop stop-color="#FFB555"/>
<stop offset="1" stop-color="#E28000"/>
</linearGradient>
<linearGradient id="paint1_linear_2838_28" x1="17.9564" y1="17.5625" x2="10.8802" y2="17.3671" gradientUnits="userSpaceOnUse">
<stop stop-color="#FFB555"/>
<stop offset="1" stop-color="#E28000"/>
</linearGradient>
</defs>
</svg>
