<svg width="24" height="24" viewBox="0 0 24 24" fill="none" xmlns="http://www.w3.org/2000/svg">
<path d="M7.26655 4.42105C7.24871 4.06912 7.31279 3.79727 7.48706 3.56842C7.91989 3 8.80159 3 10.565 3H12.4887C14.2521 3 15.1338 3 15.5666 3.56842C15.7409 3.79727 15.805 4.06912 15.7871 4.42105" stroke="#768998" stroke-width="1.5" stroke-linecap="round" stroke-linejoin="round"/>
<path d="M4.89453 8.21053C4.93038 7.96457 5.01274 7.75193 5.15002 7.56092C5.70446 6.78947 6.85378 6.78947 9.15242 6.78947H13.8998C16.1984 6.78947 17.3478 6.78947 17.9022 7.56092C18.0395 7.75193 18.1218 7.96457 18.1577 8.21053" stroke="#768998" stroke-width="1.5" stroke-linecap="round" stroke-linejoin="round"/>
<path d="M3.7745 15.5174L4.45554 17.6994C5.30394 20.4175 6.02901 21 8.88341 21H14.1692C17.0236 21 17.7487 20.4175 18.5971 17.6994L19.2781 15.5174C19.9826 13.2603 20.3349 12.1317 19.778 11.3553C19.2211 10.5789 18.0594 10.5789 15.7358 10.5789H7.3168C4.99327 10.5789 3.8315 10.5789 3.27463 11.3553C2.71775 12.1317 3.07 13.2603 3.7745 15.5174Z" fill="#768998" stroke="#768998" stroke-width="1.5" stroke-linecap="round" stroke-linejoin="round"/>
</svg>
