<svg width="24" height="24" viewBox="0 0 24 24" fill="none" xmlns="http://www.w3.org/2000/svg">
<path fill-rule="evenodd" clip-rule="evenodd" d="M7.57059 6.28571C7.57059 5.14907 8.02212 4.05898 8.82584 3.25526C9.62957 2.45153 10.7197 2 11.8563 2C12.9929 2 14.083 2.45153 14.8868 3.25526C15.6905 4.05898 16.142 5.14907 16.142 6.28571C16.142 7.42235 15.6905 8.51244 14.8868 9.31617C14.083 10.1199 12.9929 10.5714 11.8563 10.5714C10.7197 10.5714 9.62957 10.1199 8.82584 9.31617C8.02212 8.51244 7.57059 7.42235 7.57059 6.28571ZM4.00011 19.719C4.03223 17.6566 4.87406 15.6896 6.34388 14.2424C7.81371 12.7953 9.79364 11.9842 11.8563 11.9842C13.919 11.9842 15.8989 12.7953 17.3687 14.2424C18.8385 15.6896 19.6804 17.6566 19.7125 19.719C19.715 19.8579 19.6769 19.9944 19.603 20.112C19.5291 20.2295 19.4225 20.323 19.2963 20.3809C16.9622 21.4511 14.4241 22.0035 11.8563 22C9.20297 22 6.68202 21.4209 4.4163 20.3809C4.2901 20.323 4.18352 20.2295 4.1096 20.112C4.03568 19.9944 3.99764 19.8579 4.00011 19.719Z" fill="#768998"/>
</svg>
