<svg width="34" height="32" viewBox="0 0 34 32" fill="none" xmlns="http://www.w3.org/2000/svg">
<path fill-rule="evenodd" clip-rule="evenodd" d="M4.32861 10.7578C1.93778 10.7578 0 12.6956 0 15.0864V27.674C0 30.0649 1.93778 32.0026 4.32861 32.0026H20.8827C23.2735 32.0026 25.2113 30.0649 25.2113 27.674V15.0864C25.2113 12.6956 23.2735 10.7578 20.8827 10.7578H4.32861ZM9.92984 26.2514L17.6752 21.3802L9.92984 16.5091C9.16079 16.0257 8.16088 16.5784 8.16088 17.4859V25.2731C8.16088 26.1807 9.16079 26.7333 9.92984 26.2499V26.2514Z" fill="#FAFAFA"/>
<path d="M30.992 13.6358L17.6758 21.4071L30.9949 29.1336C32.1492 29.8031 33.595 28.9706 33.595 27.6359V15.132C33.595 13.7959 32.1449 12.9634 30.9906 13.6372L30.992 13.6358Z" fill="#FAFAFA"/>
<path d="M8.09693 10.1001C10.886 10.1001 13.147 7.83912 13.147 5.05005C13.147 2.26098 10.886 0 8.09693 0C5.30786 0 3.04688 2.26098 3.04688 5.05005C3.04688 7.83912 5.30786 10.1001 8.09693 10.1001Z" fill="#FAFAFA"/>
<path d="M17.4741 10.0967C19.546 10.0967 21.2256 8.41709 21.2256 6.34522C21.2256 4.27334 19.546 2.59375 17.4741 2.59375C15.4022 2.59375 13.7227 4.27334 13.7227 6.34522C13.7227 8.41709 15.4022 10.0967 17.4741 10.0967Z" fill="#FAFAFA"/>
</svg>
